<?xml version="1.0" encoding="utf-8"?>
<!-- Generator: Adobe Illustrator 22.0.1, SVG Export Plug-In . SVG Version: 6.00 Build 0)  -->
<svg version="1.1" id="Layer_1" xmlns="http://www.w3.org/2000/svg" xmlns:xlink="http://www.w3.org/1999/xlink" x="0px" y="0px"
	 viewBox="0 0 78 77" style="enable-background:new 0 0 78 77;" xml:space="preserve">
<style type="text/css">
	.st0{fill:#EFC93D;}
	.st1{fill:#B08157;}
	.st2{fill:#02363D;}
	.st3{fill:#FEFEFE;}
	.st4{fill:#000C06;}
	.st5{fill:#B05062;}
</style>
<ellipse id="path-2_1_" class="st0" cx="39" cy="38.5" rx="59" ry="58.2"/>
<path id="Fill-1_1_" class="st1" d="M61.9,52.9c-0.3,0.8-0.6,1.5-0.9,2.3c-1.1,2.9-2.9,5.5-4.4,8.1c-0.3,0.5-0.6,1-1,1.7l-4.3,0.2
	c-3-0.2-7-0.2-9.9-0.2c-1.2,0-2.4,0.1-3.7,0.1h-11h-0.1h-0.5c0,0,0,0-0.1,0c-2.2,0-4.9,0-6.1,0c-0.2-0.6-0.3-0.9-0.5-1.2
	c-1.6-2.1-3-4.3-3.7-6.8c-1.3-4.5-2.8-9-3-13.8c-0.1-4.9,0.7-9.7,2.5-14.3v-0.1c1.3-2,2.5-4.1,4.1-5.9l0,0c0.8-0.8,1.7-1.5,2.6-2.1
	c1.5-1.1,3.2-2.1,4.9-3c1.9-0.9,3.8-1.6,5.8-2.1c1.7-0.4,3.5-0.4,5.2-0.7l0,0c6.6-0.8,12.5,1.2,17.7,4.6c4,2.6,6.5,6.4,8,10.9
	c1.4,4.3,1.5,8.7,0.8,13.1c-0.2,1.4-0.3,2.9-0.8,4.3C63.2,49.6,62.6,51.2,61.9,52.9"/>
<path id="Fill-4" class="st2" d="M57.8,45l1.5,2.9c0-0.1-0.1-0.1-0.3-0.2c-0.4,0.3-1,0.6-1.4,0.9c-0.8,0.6-1.5,1.2-2.3,1.7
	c-1.8,1.1-3.7,2-5.5,3.1c-0.4,0.2-0.8,0.3-0.9,0.8c-0.5,1.6-1.8,2.1-3.2,2.4c-1,0.2-1.6-0.2-2-1.1c-0.6-1.3-0.2-2.5,0.5-3.6
	c0.3-0.6,1-1,1.6-1.3s1.1,0.1,1.6,0.4c0.2,0.1,0.6,0.1,0.8,0c1.7-0.8,3.4-1.7,5-2.6c1.3-0.7,2.5-1.6,3.7-2.3
	C57.7,45.5,57.9,45.4,57.8,45"/>
<path id="Fill-6" class="st3" d="M36.7,33.2c-0.1-1.1,0.4-1.9,1.2-2.5c1-0.8,2.2-1.3,3.6-1.3c0.8,0,1.5-0.1,2.3-0.2
	c0.6,0,1.3-0.2,1.9,0c1.3,0.3,2.6,0.5,3.7,1.2c2,1.4,3.3,3.2,1.8,5.7c-0.1,0.2-0.4,0.5-0.6,0.7c-2.2,1.5-4.7,2-7.3,1.8
	c-1.1-0.1-2.2-0.3-3.5-0.4c-1.7-0.9-1.8-1.3-2.3-2.3c0-0.1-0.1-0.3-0.1-0.4C37,34.7,36.9,33.9,36.7,33.2L36.7,33.2z"/>
<path id="Fill-8" class="st2" d="M41,45.4l-0.2,2.3l-9.2-0.6c0-1,0-2,0.1-3c0.1-0.4,0.4-0.8,0.7-1.1c1.7-1.8,3.3-3.7,4.6-5.8
	c0.3-0.5,0.4-0.8,0.3-1.3c0.5,1,0.6,1.4,2.3,2.3c-1.4,2-2.9,4.2-4.5,6.4C37.2,44.9,39.1,45.1,41,45.4"/>
<path id="Fill-10" class="st2" d="M37,54.7c-1.6-0.5-3,0-4.5-0.1c-1.4,0-2.9-0.1-4.5-0.1c0.5,0.6,0.8,1,1.2,1.4c0.9,1,2,1.4,3.4,1.1
	c0.8-0.2,1.7-0.4,2.5-0.7C35.9,56,36.5,55.6,37,54.7 M39.9,52.2c0.5,0.9,0.4,1.7,0.1,2.5c-1.3,3.9-3.7,5.3-8.2,5.6
	c-1.2,0.1-2.4-0.5-3.2-1.4c-1-1.2-2.2-2.2-2.9-3.6c-0.1-0.2-0.2-0.4-0.3-0.6c-0.1-0.2-0.2-0.4-0.2-0.6V54c0-0.1,0-0.2,0-0.3
	c0-0.4,0.1-0.7,0.4-0.9c0.2-0.2,0.5-0.3,0.9-0.3c4.2-0.1,8.4-0.1,12.7-0.2C39.3,52.2,39.6,52.2,39.9,52.2"/>
<path id="Fill-14" class="st3" d="M36.7,33.2L36.7,33.2c-0.4,1.9-2,3.7-4,4.1c-2,0.4-4.1,0.3-6.1-0.1c-1.3-0.3-2.4-0.9-3.3-1.8
	c-1.9-2-1.6-4.9,1.1-6.1c1.2-0.6,2.5-0.8,3.8-0.8c1.2,0,2.3,0,3.5,0c0.3,0,0.8,0.1,1,0.1c2.2,0.5,3.7,1.6,3.9,3.9
	C36.6,32.7,36.7,32.9,36.7,33.2"/>
<path id="Fill-16" class="st3" d="M25.2,54c0.1,0.2,0.1,0.4,0.2,0.6C25.4,54.4,25.3,54.2,25.2,54L25.2,54L25.2,54"/>
<path id="Fill-18" class="st3" d="M25.6,52.7c-0.2,0.2-0.4,0.5-0.4,0.9C25.2,53.2,25.3,52.9,25.6,52.7"/>
<path id="Fill-20" class="st4" d="M41.3,33.7c0-0.2,0.1-0.5,0.1-0.7c-0.1-1.3,1.2-2.9,2.2-3.3c0.2-0.1,0.4-0.1,0.6-0.1
	c0.5,0,1,0.1,1.4,0.1c0.9,0.1,1.4,0.8,1.7,1.8c0.4,1.5,0.3,3,0,4.6c-0.1,0.3-0.2,0.6-0.4,0.8c-0.5,0.5-1,0.9-1.5,1.3
	c-0.8,0.5-2.7,0.2-3.2-0.5c-0.6-0.8-1-1.8-0.9-3C41.3,34.4,41.3,34.1,41.3,33.7"/>
<path id="Fill-22" class="st4" d="M26.4,32.9c0-0.2,0-0.5,0-0.7c-0.2-1.3,0.9-2.9,1.9-3.4c0.2-0.1,0.3-0.1,0.5-0.1
	c0.4,0,0.9,0,1.4,0c0.8,0.1,1.4,0.7,1.8,1.6c0.5,1.4,0.5,2.9,0.3,4.4c0,0.3-0.2,0.6-0.4,0.8c-0.4,0.5-0.9,1-1.4,1.3
	c-0.7,0.5-2.6,0.3-3.2-0.3c-0.7-0.7-1.1-1.7-1-2.8C26.4,33.5,26.4,33.2,26.4,32.9"/>
<path id="Fill-24" class="st2" d="M63.8,30.5c1.4,4.3,1.5,8.7,0.8,13.1c-0.2,1.4-0.3,2.9-0.8,4.3c-0.6,1.7-1.2,3.3-1.9,4.9l-2.6-5
	L57.8,45c0-0.2-0.1-0.5-0.3-0.9c-0.6-1.6-1.3-3.1-1.7-4.7c-1.1-4.2-1.3-8.4-0.4-12.8c-2.1,0.2-4.1,0.4-6.1,0.6s-3.9,0.3-5.9,0.2
	c-0.5,0-1-0.1-1.5-0.1c-3,0.2-5.9-0.1-8.8-0.8c-2.6-0.6-8.9-4-11.1-5.7c1.6-1.1,3.2-2.1,4.9-3c1.9-0.9,3.8-1.6,5.8-2.1
	c1.7-0.4,3.5-0.4,5.2-0.7l0,0c6.6-0.8,12.5,1.2,17.7,4.6C59.8,22.2,62.3,26,63.8,30.5"/>
<path id="Fill-1_2_" class="st5" d="M98,63.9c-0.1,2.1-0.2,3.9-0.3,5.7c-0.3,7.7-0.5,15.4-0.8,23.1c-0.1,3.9-0.4,7.8-0.6,11.7
	c-0.4,6.6-0.8,13.3-1.1,19.9c-0.2,3.9-0.3,7.8-0.5,11.7c-0.5,9.8-1,19.7-1.4,29.5c-0.3,6.7-0.6,13.5-0.9,20.2c0,0.5-0.2,1-0.4,1.6
	c-1.2,0-2.2,0.1-3.3,0.1c-29.2,0.5-58.4,1-87.7,1.5c-0.6,0-1.3,0-1.9,0c-0.5,0-1-0.1-1.6-0.2c-0.1-0.5-0.3-0.8-0.3-1.1
	c-0.3-3-0.5-6-0.8-9c-0.5-5.6-1-11.1-1.5-16.7c-0.6-5.9-1.2-11.8-1.7-17.7s-1-11.8-1.6-17.8s-1.2-12-1.7-18
	c-0.6-6.1-1.1-12.2-1.6-18.3c-0.5-5.7-1.1-11.5-1.6-17.2c-0.3-2.6-0.5-5.3-0.7-8c0-0.6,0.1-1.2,0.2-1.9c1.4,0,2.7-0.1,3.9-0.1
	c4.3,0,8.7,0.1,13,0.2c7.3,0.1,14.6,0.1,21.9,0.2c7,0.1,14.1,0.1,21.1,0.2c7.1,0.1,14.2,0.1,21.4,0.2c8,0.1,16,0.1,24.1,0.1
	C93.6,63.8,95.6,63.9,98,63.9z"/>
</svg>
